solid OpenSCAD_Model
  facet normal 0 0 -1
    outer loop
      vertex 0 -10 0
      vertex 8.66025 5 0
      vertex 8.66025 -5 0
    endloop
  endfacet
  facet normal 0 0 -1
    outer loop
      vertex 0 -10 0
      vertex 0 10 0
      vertex 8.66025 5 0
    endloop
  endfacet
  facet normal 0 0 -1
    outer loop
      vertex -8.66025 -5 0
      vertex 0 10 0
      vertex 0 -10 0
    endloop
  endfacet
  facet normal 0 0 -1
    outer loop
      vertex 0 10 0
      vertex -8.66025 -5 0
      vertex -8.66025 5 0
    endloop
  endfacet
  facet normal 0.433013 0.75 0.5
    outer loop
      vertex 8.66025 5 0
      vertex 0 10 0
      vertex -8.66025 5 15
    endloop
  endfacet
  facet normal 0.866026 -0 0.5
    outer loop
      vertex 8.66025 -5 0
      vertex 8.66025 5 0
      vertex 0 10 15
    endloop
  endfacet
  facet normal 0.433013 -0.75 0.5
    outer loop
      vertex 8.66025 -5 0
      vertex 8.66025 5 15
      vertex 0 -10 0
    endloop
  endfacet
  facet normal -0.433013 -0.75 0.5
    outer loop
      vertex 0 -10 0
      vertex 8.66025 -5 15
      vertex -8.66025 -5 0
    endloop
  endfacet
  facet normal -0.866026 0 0.5
    outer loop
      vertex 0 -10 15
      vertex -8.66025 5 0
      vertex -8.66025 -5 0
    endloop
  endfacet
  facet normal -0.433013 0.75 0.5
    outer loop
      vertex 0 10 0
      vertex -8.66025 5 0
      vertex -8.66025 -5 15
    endloop
  endfacet
  facet normal -0.866026 -0 -0.5
    outer loop
      vertex -8.66025 5 15
      vertex 0 10 0
      vertex -8.66025 -5 15
    endloop
  endfacet
  facet normal -0.433013 0.75 -0.5
    outer loop
      vertex 0 10 15
      vertex 8.66025 5 0
      vertex -8.66025 5 15
    endloop
  endfacet
  facet normal 0.433013 0.75 -0.5
    outer loop
      vertex 8.66025 5 15
      vertex 8.66025 -5 0
      vertex 0 10 15
    endloop
  endfacet
  facet normal 0.866026 0 -0.5
    outer loop
      vertex 8.66025 5 15
      vertex 8.66025 -5 15
      vertex 0 -10 0
    endloop
  endfacet
  facet normal 0.433013 -0.75 -0.5
    outer loop
      vertex 8.66025 -5 15
      vertex 0 -10 15
      vertex -8.66025 -5 0
    endloop
  endfacet
  facet normal -0.433013 -0.75 -0.5
    outer loop
      vertex -8.66025 5 0
      vertex 0 -10 15
      vertex -8.66025 -5 15
    endloop
  endfacet
  facet normal 0 0 1
    outer loop
      vertex 0 10 30
      vertex 8.66025 -5 30
      vertex 8.66025 5 30
    endloop
  endfacet
  facet normal 0 0 1
    outer loop
      vertex 0 10 30
      vertex 0 -10 30
      vertex 8.66025 -5 30
    endloop
  endfacet
  facet normal -0 0 1
    outer loop
      vertex -8.66025 5 30
      vertex 0 -10 30
      vertex 0 10 30
    endloop
  endfacet
  facet normal 0 0 1
    outer loop
      vertex 0 -10 30
      vertex -8.66025 5 30
      vertex -8.66025 -5 30
    endloop
  endfacet
  facet normal -0.433013 0.75 0.5
    outer loop
      vertex 8.66025 5 30
      vertex 0 10 15
      vertex -8.66025 5 15
    endloop
  endfacet
  facet normal -0.866026 0 0.5
    outer loop
      vertex 0 10 30
      vertex -8.66025 5 15
      vertex -8.66025 -5 15
    endloop
  endfacet
  facet normal -0.433013 -0.75 0.5
    outer loop
      vertex 0 -10 15
      vertex -8.66025 5 30
      vertex -8.66025 -5 15
    endloop
  endfacet
  facet normal 0.433013 -0.75 0.5
    outer loop
      vertex 0 -10 15
      vertex 8.66025 -5 15
      vertex -8.66025 -5 30
    endloop
  endfacet
  facet normal 0.866026 -0 0.5
    outer loop
      vertex 8.66025 -5 15
      vertex 8.66025 5 15
      vertex 0 -10 30
    endloop
  endfacet
  facet normal 0.433013 0.75 0.5
    outer loop
      vertex 8.66025 -5 30
      vertex 8.66025 5 15
      vertex 0 10 15
    endloop
  endfacet
  facet normal 0.866026 0 -0.5
    outer loop
      vertex 8.66025 5 30
      vertex 8.66025 -5 30
      vertex 0 10 15
    endloop
  endfacet
  facet normal 0.433013 0.75 -0.5
    outer loop
      vertex 0 10 30
      vertex 8.66025 5 30
      vertex -8.66025 5 15
    endloop
  endfacet
  facet normal -0.433013 0.75 -0.5
    outer loop
      vertex -8.66025 5 30
      vertex 0 10 30
      vertex -8.66025 -5 15
    endloop
  endfacet
  facet normal -0.866026 -0 -0.5
    outer loop
      vertex -8.66025 5 30
      vertex 0 -10 15
      vertex -8.66025 -5 30
    endloop
  endfacet
  facet normal -0.433013 -0.75 -0.5
    outer loop
      vertex 8.66025 -5 15
      vertex 0 -10 30
      vertex -8.66025 -5 30
    endloop
  endfacet
  facet normal 0.433013 -0.75 -0.5
    outer loop
      vertex 8.66025 5 15
      vertex 8.66025 -5 30
      vertex 0 -10 30
    endloop
  endfacet
endsolid OpenSCAD_Model
