solid OpenSCAD_Model
  facet normal 0.35997 0.869046 0.339383
    outer loop
      vertex -7.07107 7.07107 15
      vertex 7.07107 7.07107 0
      vertex 0 10 0
    endloop
  endfacet
  facet normal 0.869046 0.35997 0.339383
    outer loop
      vertex 0 10 15
      vertex 10 0 0
      vertex 7.07107 7.07107 0
    endloop
  endfacet
  facet normal 0.869046 -0.35997 0.339383
    outer loop
      vertex 7.07107 7.07107 15
      vertex 7.07107 -7.07107 0
      vertex 10 0 0
    endloop
  endfacet
  facet normal 0.35997 -0.869046 0.339383
    outer loop
      vertex 10 0 15
      vertex -0 -10 0
      vertex 7.07107 -7.07107 0
    endloop
  endfacet
  facet normal -0.35997 -0.869046 0.339383
    outer loop
      vertex 7.07107 -7.07107 15
      vertex -7.07107 -7.07107 0
      vertex -0 -10 0
    endloop
  endfacet
  facet normal -0.869046 -0.35997 0.339383
    outer loop
      vertex -0 -10 15
      vertex -10 -0 0
      vertex -7.07107 -7.07107 0
    endloop
  endfacet
  facet normal -0.869046 0.35997 0.339383
    outer loop
      vertex -7.07107 -7.07107 15
      vertex -7.07107 7.07107 0
      vertex -10 -0 0
    endloop
  endfacet
  facet normal -0.35997 0.869046 0.339383
    outer loop
      vertex -10 -0 15
      vertex 0 10 0
      vertex -7.07107 7.07107 0
    endloop
  endfacet
  facet normal 0.35997 -0.869046 0.339383
    outer loop
      vertex 7.07107 7.07107 0
      vertex 0 10 15
      vertex -7.07107 7.07107 15
    endloop
  endfacet
  facet normal -0.35997 -0.869046 0.339383
    outer loop
      vertex 10 0 0
      vertex 7.07107 7.07107 15
      vertex 0 10 15
    endloop
  endfacet
  facet normal -0.869046 -0.35997 0.339383
    outer loop
      vertex 7.07107 -7.07107 0
      vertex 10 0 15
      vertex 7.07107 7.07107 15
    endloop
  endfacet
  facet normal -0.869046 0.35997 0.339383
    outer loop
      vertex -0 -10 0
      vertex 7.07107 -7.07107 15
      vertex 10 0 15
    endloop
  endfacet
  facet normal -0.35997 0.869046 0.339383
    outer loop
      vertex -7.07107 -7.07107 0
      vertex -0 -10 15
      vertex 7.07107 -7.07107 15
    endloop
  endfacet
  facet normal 0.35997 0.869046 0.339383
    outer loop
      vertex -10 -0 0
      vertex -7.07107 -7.07107 15
      vertex -0 -10 15
    endloop
  endfacet
  facet normal 0.869046 0.35997 0.339383
    outer loop
      vertex -7.07107 7.07107 0
      vertex -10 -0 15
      vertex -7.07107 -7.07107 15
    endloop
  endfacet
  facet normal -0.869046 0.35997 -0.339383
    outer loop
      vertex -7.07107 7.07107 15
      vertex 0 10 0
      vertex -10 -0 15
    endloop
  endfacet
  facet normal 0 0 1
    outer loop
      vertex 7.07107 7.07107 0
      vertex 7.07107 -7.07107 0
      vertex 10 0 0
    endloop
  endfacet
  facet normal 0 0 1
    outer loop
      vertex 0 10 0
      vertex 7.07107 -7.07107 0
      vertex 7.07107 7.07107 0
    endloop
  endfacet
  facet normal 0 0 1
    outer loop
      vertex 0 10 0
      vertex -0 -10 0
      vertex 7.07107 -7.07107 0
    endloop
  endfacet
  facet normal -0 0 1
    outer loop
      vertex -7.07107 7.07107 0
      vertex -0 -10 0
      vertex 0 10 0
    endloop
  endfacet
  facet normal 0 0 1
    outer loop
      vertex -7.07107 7.07107 0
      vertex -7.07107 -7.07107 0
      vertex -0 -10 0
    endloop
  endfacet
  facet normal 0 -0 1
    outer loop
      vertex -7.07107 -7.07107 0
      vertex -7.07107 7.07107 0
      vertex -10 -0 0
    endloop
  endfacet
  facet normal 0 0 1
    outer loop
      vertex 7.07107 7.07107 15
      vertex 7.07107 -7.07107 15
      vertex 10 0 15
    endloop
  endfacet
  facet normal 0 0 1
    outer loop
      vertex 0 10 15
      vertex 7.07107 -7.07107 15
      vertex 7.07107 7.07107 15
    endloop
  endfacet
  facet normal 0 0 1
    outer loop
      vertex 0 10 15
      vertex -0 -10 15
      vertex 7.07107 -7.07107 15
    endloop
  endfacet
  facet normal -0 0 1
    outer loop
      vertex -7.07107 7.07107 15
      vertex -0 -10 15
      vertex 0 10 15
    endloop
  endfacet
  facet normal 0 0 1
    outer loop
      vertex -7.07107 7.07107 15
      vertex -7.07107 -7.07107 15
      vertex -0 -10 15
    endloop
  endfacet
  facet normal 0 -0 1
    outer loop
      vertex -7.07107 -7.07107 15
      vertex -7.07107 7.07107 15
      vertex -10 -0 15
    endloop
  endfacet
endsolid OpenSCAD_Model
